<?xml version="1.0" standalone="no"?>
<!DOCTYPE svg PUBLIC "-//W3C//DTD SVG 20010904//EN"
 "http://www.w3.org/TR/2001/REC-SVG-20010904/DTD/svg10.dtd">
<svg version="1.0" xmlns="http://www.w3.org/2000/svg"
 width="540.000000pt" height="540.000000pt" viewBox="0 0 540.000000 540.000000"
 preserveAspectRatio="xMidYMid meet">
<metadata>
Created by potrace 1.11, written by Peter Selinger 2001-2013
</metadata>
<g transform="translate(0.000000,540.000000) scale(0.100000,-0.100000)"
fill="#000000" stroke="none">
<path d="M0 2700 l0 -2700 2700 0 2700 0 0 2700 0 2700 -2700 0 -2700 0 0
-2700z m3370 331 l0 -180 640 -1 640 0 0 90 0 90 180 0 180 0 0 -330 0 -330
-180 0 -180 0 0 90 0 90 -640 0 -640 0 0 -175 0 -175 -665 0 -665 0 0 175 0
175 -642 -2 -643 -3 0 -88 0 -87 -182 0 -183 0 0 330 0 330 183 0 182 0 -2
-82 c-1 -54 3 -85 10 -90 7 -4 297 -8 645 -8 l632 0 0 180 0 180 665 0 665 0
0 -179z"/>
</g>
</svg>
