<?xml version="1.0" encoding="utf-8"?>
<!-- Generator: Adobe Illustrator 24.0.1, SVG Export Plug-In . SVG Version: 6.00 Build 0)  -->
<svg version="1.1" id="Layer_1" xmlns="http://www.w3.org/2000/svg" xmlns:xlink="http://www.w3.org/1999/xlink" x="0px" y="0px"
	 viewBox="0 0 205.6 305.65" style="enable-background:new 0 0 205.6 305.65;" xml:space="preserve">
<style type="text/css">
	.st0{fill:#9d8037;}
</style>
<path class="st0" d="M96.94,44.74c-4.22,22.06-20.42,32.39-50.7,32.39c-6.8,0-12.2-0.47-23.24-1.64c-1.64,5.87-1.64,6.34-3.76,16.43
	c-2.11,10.09-2.81,12.91-5.4,22.3c5.87-6.8,8.68-8.92,14.32-11.51c7.98-3.52,16.66-5.4,25.35-5.4c29.11,0,53.05,20.66,53.05,46.01
	c0,30.28-24.41,51.64-59.38,51.64C19.25,194.96,0,179.71,0,157.87c0-13.84,9.16-24.18,21.12-24.18c11.51,0,20.19,8.92,20.19,20.42
	c0,11.27-7.98,19.48-18.78,19.48c-5.4,0-10.33-1.87-14.78-6.1c1.41,15.49,14.32,24.65,34.03,24.65c9.63,0,14.32-2.35,17.84-8.92
	c3.99-7.04,6.1-19.25,6.1-35.22c0-17.6-1.64-26.99-6.1-35.2c-3.29-6.1-11.04-10.33-19.25-10.33c-12.21,0-20.89,6.34-28.87,20.65
	H9.62C16.67,96.61,17.61,91.68,23,58.12c0.47-2.82,1.41-7.75,2.35-14.32c12.44,2.58,21.59,3.52,39.67,3.52
	c13.61,0,18.07-0.47,30.51-3.52L96.94,44.74z"/>
<path class="st0" d="M186.59,58.59c11.73,12.67,19.01,34.97,19.01,58.21c0,42.96-24.64,78.64-54.22,78.64
	c-12.44,0-24.88-4.93-33.1-13.38c-14.79-14.56-22.77-36.86-22.77-63.38c0-21.37,4.23-38.5,12.92-51.41
	c10.8-16.43,26.52-26.06,42.49-26.06C163.12,41.22,176.49,47.79,186.59,58.59 M135.65,54.36c-2.35,6.34-3.52,21.83-3.52,46.01
	c0,41.3,1.87,73.47,4.46,81.45c2.58,7.74,6.81,11.26,13.14,11.26c5.87,0,10.8-3.52,13.15-9.85c3.05-7.28,4.46-27.94,4.46-63.15
	c0-29.1-1.41-53.98-3.53-62.67c-2.11-9.16-7.74-14.55-14.78-14.55C143.4,42.86,138.47,47.09,135.65,54.36"/>
<path class="st0" d="M81.05,0.04h12.86V5.8h-0.18c-0.08-1.33-0.25-1.88-0.98-3.11c-0.64-1.06-2.12-2.31-2.76-2.31h-0.45V12.4
	c0,0.63,0.41,0.96,1.22,0.96h0.66v0.34h-8.14v-0.34h0.7c0.88,0,1.35-0.41,1.35-1.16V0.39h-0.39c-0.29,0-1.15,0.53-1.72,1.04
	C82.56,2.04,82.04,2.8,81.6,3.8c-0.31,0.73-0.34,0.92-0.34,1.69V5.8h-0.21V0.04z"/>
<path class="st0" d="M104.23,5.99V1.3c0-0.55-0.36-0.92-0.9-0.92h-0.36V0.04h6.72v0.35h-0.43c-0.59,0-0.96,0.35-0.96,0.92v11.25
	c0,0.46,0.35,0.81,0.84,0.79h0.55v0.33h-6.72v-0.33h0.36c0.59,0,0.9-0.43,0.9-1.21V6.31h-4.27v6.24c0,0.51,0.25,0.79,0.72,0.79h0.67
	v0.33h-6.74v-0.33h0.32c0.55,0,1-0.47,1-1.04V1.08c0-0.45-0.26-0.69-0.78-0.69h-0.55V0.04h6.74v0.35h-0.33
	c-0.59-0.03-1.06,0.39-1.06,0.92v4.68H104.23z"/>
<path class="st0" d="M121.92,5.19h-0.25c-0.04-1.41-0.25-2.05-0.96-2.98c-0.98-1.25-2.29-1.9-3.84-1.9h-0.61v5.84h0.39
	c0.74,0,1.54-0.48,2.11-1.26c0.49-0.66,0.63-1.08,0.63-1.86V2.84h0.27v7.3h-0.27v-0.2c0-0.8-0.18-1.37-0.67-2.05
	c-0.56-0.76-1.45-1.33-2.07-1.33h-0.39v6.23c0,0.45,0.33,0.61,1.19,0.61c1.47,0,2.39-0.41,3.12-1.41c0.58-0.78,1.11-1.76,1.49-2.76
	c0.22-0.59,0.28-0.91,0.31-1.84h0.27v6.28h-12.51v-0.29h0.68c1.13,0,1.5-0.31,1.5-1.24V1.12c0-0.59-0.45-0.81-1.59-0.81h-0.59V0
	h11.8V5.19z"/>
<path class="st0" d="M46.46,17.83c-0.92,0.03-1.31,0.31-1.31,0.85c0,0.18,0.06,0.52,0.12,0.82l2.98,11.45l1.62-6.39l-1.22-5.3
	c-0.28-1.13-0.52-1.37-1.43-1.43V17.3h8.93v0.52h-0.76c-0.37,0-0.61,0.27-0.61,0.67c0,0.13,0.04,0.37,0.09,0.59l2.8,11.97l2.04-7.74
	c0.22-0.79,0.34-1.71,0.34-2.59c0-1.89-0.61-2.89-1.74-2.89h-0.54v-0.58h6.18v0.58h-0.67c-0.39,0-0.79,0.24-1.09,0.61
	c-0.64,0.85-1.53,2.75-1.83,3.93l-3.9,15.35h-3.44l-2.9-12.03l-3.16,12.03h-3.23l-4.66-18.8c-0.18-0.76-0.52-1.1-1.07-1.1h-0.46
	v-0.58h8.93V17.83z"/>
<path class="st0" d="M77.98,19.71c2.46,2.29,3.59,4.66,3.59,7.68c0,5.4-4.93,10.42-10.27,10.42c-2.56,0-5.7-1.43-7.58-3.42
	c-1.65-1.76-2.59-4.26-2.59-6.79c0-3.11,1.43-6.07,3.99-8.17c2.04-1.7,4.24-2.59,6.34-2.59C73.62,16.85,75.96,17.89,77.98,19.71
	 M68.62,19.11c-0.76,1.77-1.16,4.51-1.16,8.28c0,3.42,0.27,6.06,0.79,7.71c0.43,1.41,1.62,2.35,2.99,2.35
	c1.07,0,2.07-0.58,2.47-1.43c0.77-1.55,1.18-4.33,1.18-7.71c0-4.75-0.39-8.04-1.15-9.78c-0.36-0.79-1.31-1.31-2.44-1.31
	C69.99,17.21,69.23,17.77,68.62,19.11"/>
<path class="st0" d="M90.66,17.25c3.11,0,4.56,0.28,6.15,1.13c1.52,0.85,2.47,2.29,2.47,3.78c0,1.01-0.46,2.1-1.19,2.8
	c-0.88,0.86-1.74,1.28-3.99,2.04c2.65,0.7,3.68,1.25,4.38,2.31c0.54,0.82,0.7,1.56,0.7,3.57v2.16c0,0.73,0.18,1.07,0.58,1.07
	c0.77,0,1.35-1.65,1.35-3.84c0-0.09,0-0.76-0.04-1.22h0.4l0.03,1.49c0,2.16-0.39,3.47-1.34,4.23c-0.76,0.67-1.83,1.04-2.95,1.04
	c-1.34,0-2.68-0.52-3.6-1.4c-0.7-0.67-1.03-1.74-1.03-3.41c0-0.25,0.03-0.85,0.05-1.34c0.03-0.7,0.06-1.58,0.06-1.89
	c0-1.68-0.58-2.5-1.79-2.5h-1.77v8.41c0,0.79,0.39,1.31,1.01,1.31h1.03v0.58H80.79v-0.58h0.43c1.28,0,1.85-0.43,1.85-1.4V18.8
	c0-0.73-0.34-0.97-1.31-0.97h-0.94v-0.61L90.66,17.25z M89.14,26.76h1.37c2.16,0,2.74-0.86,2.74-4.12c0-2.1-0.12-3.08-0.52-3.81
	c-0.33-0.64-0.97-1-1.74-1h-1.86V26.76z"/>
<path class="st0" d="M118.82,28.61v8.99H101.2v-0.52h0.74c1.15,0,2.01-0.82,2.01-1.98V19.04c0-0.82-0.85-1.37-2.1-1.37h-0.64v-0.49
	h11.92v0.49h-0.86c-1.46,0-2.14,0.49-2.14,1.59v16.51c0,0.92,0.52,1.37,1.65,1.37c1.61,0,3.17-1.1,4.69-3.35
	c1.22-1.77,1.65-2.86,1.95-5.18H118.82z"/>
<path class="st0" d="M123.27,19.38c0-1.09-0.55-1.65-1.73-1.65h-1.56V17.3h9.84H130c2.41-0.22,5.94,0.37,7.55,1.19
	c2.34,1.22,4.05,5,4.05,8.93c0,3.22-1.16,5.88-3.44,7.92c-1.95,1.73-3.41,2.22-6.55,2.22h-11.64v-0.45h1.31
	c1.34,0,1.98-0.51,1.98-1.59V19.38z M131.65,37.11c1.4,0,2.19-0.82,2.65-2.72c0.46-1.85,0.7-4.35,0.7-7.49
	c0-5.27-0.15-6.64-0.85-8.04c-0.46-0.94-1.16-1.22-3.2-1.22c-1.31,0-1.8,0.34-1.8,1.25v17.7c0,0.39,0.12,0.51,0.52,0.51H131.65z"/>
<path class="st0" d="M143.36,24.56c2.44-0.25,4.02-1.71,4.05-3.75c-1,0.61-1.52,0.79-2.31,0.79c-1.56,0-2.75-1.15-2.75-2.65
	c0-1.49,1.23-2.59,2.87-2.59c1.82,0,3.07,1.34,3.07,3.32c0,1.67-0.82,3.35-2.1,4.27c-0.73,0.54-1.4,0.76-2.84,0.97V24.56z"/>
<path class="st0" d="M149.31,28.4c0.18,1.46,0.52,2.28,1.89,4.54c1.94,3.26,3.81,4.75,5.97,4.75c1.35,0,1.98-0.24,2.56-1
	c0.59-0.73,0.89-1.61,0.89-2.53c0-0.94-0.4-1.83-1.07-2.4c-0.88-0.76-0.88-0.76-6.09-2.5c-2.77-0.94-4.48-3.08-4.48-5.6
	c0-3.59,3.54-6.58,7.74-6.58c0.87,0,1.18,0.06,3.47,0.73c0.64,0.19,1.28,0.31,1.8,0.31c0.86,0,1.31-0.37,1.49-1.16h0.37v7.83h-0.37
	c-0.24-1.94-0.73-3.17-1.79-4.69c-1.22-1.71-2.87-2.65-4.6-2.65c-0.94,0-1.61,0.27-2.12,0.91c-0.52,0.64-0.82,1.43-0.82,2.22
	c0,0.85,0.45,1.77,1.22,2.35c0.45,0.36,0.91,0.61,1.33,0.73l3.87,1.1c3.32,0.95,5.06,3.04,5.06,6.12c0,2.16-0.76,3.81-2.35,5.12
	c-1.64,1.37-3.66,2.1-5.73,2.1c-1.55,0-1.61,0-5.91-1.4c-0.28-0.09-0.65-0.15-0.95-0.15c-0.79,0-1.24,0.36-1.37,1.04h-0.33V28.4
	H149.31z"/>
<path class="st0" d="M33.09,200.21c7.6,0,11.16,0.71,15.44,3.09c3.87,2.14,6.01,5.47,6.01,9.42c0,2.85-1.26,5.62-3.24,7.36
	c-2.3,1.97-4.36,2.85-9.74,4.35c5.93,1.03,8.62,1.89,11.71,4.11c3.24,2.3,5.3,6.41,5.3,10.68c0,4.75-2.45,8.94-6.5,11.16
	c-3.87,2.05-7.36,2.61-17.49,2.61H5.63v-1.27h3.56c2.3,0,4.04-1.43,4.04-3.32v-44.4c0-1.9-1.03-2.45-4.51-2.45H6.19l-0.09-1.35
	H33.09z M28.74,223.88H35c3,0,4.27-3.09,4.27-10.13c0-5.38-0.95-9.89-2.37-11.16c-1.03-0.87-1.67-1.03-4.67-1.03h-3.48V223.88z
	 M28.82,248.26c0,2.37,0.95,3.64,2.85,3.64h4.2c3.32,0,4.98-3.4,4.98-9.98c0-7.51-0.4-10.92-1.66-13.53
	c-0.87-1.9-3.16-3.25-5.38-3.25h-4.99V248.26z"/>
<path class="st0" d="M100.04,220.16h-0.95c-0.16-5.46-0.95-7.91-3.72-11.55c-3.8-4.83-8.86-7.37-14.88-7.37h-2.38v22.64h1.5
	c2.85,0,5.94-1.9,8.15-4.91c1.9-2.54,2.45-4.19,2.45-7.2v-0.71h1.03v28.25h-1.03v-0.79c0-3.09-0.71-5.3-2.61-7.91
	c-2.14-2.93-5.62-5.14-8-5.14h-1.5v24.14c0,1.74,1.27,2.38,4.59,2.38c5.69,0,9.26-1.58,12.11-5.46c2.22-3.01,4.28-6.81,5.78-10.68
	c0.87-2.29,1.11-3.56,1.19-7.13h1.02V253H54.37v-1.11h2.61c4.43,0,5.86-1.19,5.86-4.83v-42.66c0-2.3-1.74-3.17-6.17-3.17h-2.3v-1.19
	h45.67V220.16z"/>
<path class="st0" d="M106.55,229.18c0.48,3.8,1.34,5.93,4.91,11.79c5.06,8.47,9.89,12.35,15.51,12.35c3.48,0,5.14-0.63,6.65-2.61
	c1.5-1.9,2.3-4.2,2.3-6.57c0-2.45-1.03-4.75-2.77-6.26c-2.29-1.97-2.29-1.97-15.82-6.49c-7.2-2.45-11.64-7.99-11.64-14.56
	c0-9.35,9.18-17.1,20.1-17.1c2.3,0,3.09,0.16,9.02,1.9c1.66,0.47,3.32,0.79,4.67,0.79c2.21,0,3.4-0.95,3.87-3.01h0.95v20.35h-0.95
	c-0.63-5.07-1.9-8.23-4.67-12.19c-3.17-4.43-7.44-6.89-11.95-6.89c-2.45,0-4.2,0.72-5.54,2.38c-1.35,1.67-2.14,3.72-2.14,5.78
	c0,2.22,1.19,4.59,3.17,6.1c1.19,0.95,2.37,1.58,3.48,1.9l10.05,2.84c8.62,2.46,13.13,7.92,13.13,15.91c0,5.62-1.98,9.9-6.09,13.3
	c-4.27,3.56-9.5,5.46-14.87,5.46c-4.04,0-4.2,0-15.36-3.64c-0.71-0.24-1.67-0.4-2.45-0.4c-2.06,0-3.25,0.95-3.56,2.69h-0.87v-23.82
	H106.55z"/>
<path class="st0" d="M148.42,200.43h49.78v22.33h-0.71c-0.31-5.15-0.95-7.28-3.8-12.03c-2.45-4.12-8.23-8.94-10.69-8.94h-1.73v46.54
	c0,2.45,1.58,3.72,4.75,3.72h2.53v1.34h-31.5v-1.34h2.69c3.4,0,5.22-1.59,5.22-4.51v-45.75h-1.5c-1.11,0-4.43,2.06-6.65,4.04
	c-2.53,2.37-4.59,5.3-6.25,9.18c-1.19,2.85-1.35,3.56-1.35,6.56v1.2h-0.79V200.43z"/>
<g>
	<path class="st0" d="M11.04,303.39h3.07c1.98,0,3.48-1.23,3.48-2.87V262.2c0-1.64-0.96-2.19-3.89-2.19h-2.25v-1.09h23.3
		c6.56,0,9.63,0.62,13.32,2.66c3.35,1.84,5.19,4.71,5.19,8.13c0,2.46-1.09,4.85-2.8,6.35c-1.98,1.71-3.76,2.53-8.4,3.76
		c5.12,0.89,7.45,1.64,10.11,3.55c2.8,1.98,4.58,5.53,4.58,9.15c0,4.17-2.05,7.72-5.6,9.63c-3.35,1.84-6.56,2.32-15.1,2.32h-25
		V303.39z M30.99,279.35h5.4c2.6,0,3.69-2.66,3.69-8.74c0-4.65-0.82-8.54-2.05-9.63c-0.82-0.75-1.64-0.96-4.03-0.96h-3.01V279.35z
		 M31.05,300.32c0,2.12,0.82,3.14,2.46,3.14h3.62c2.87,0,4.3-2.87,4.3-8.54c0-6.49-0.34-9.43-1.43-11.68
		c-0.75-1.64-2.73-2.8-4.65-2.8h-4.3V300.32z"/>
	<path class="st0" d="M53.53,303.39c4.65-0.2,7.45-3.48,10.86-12.91l10.11-31.56h10.25l13.59,40.17c1.3,3.89,1.71,4.3,4.3,4.3h1.98
		v1.09H78.12v-1.09h2.8c1.91,0,2.87-0.62,2.87-1.91c0-0.82-0.14-1.57-0.41-2.39l-4.3-13.46H67.19c-1.57,3.48-2.73,8.06-2.73,10.52
		c0,2.8,1.09,5.19,2.8,6.22c1.3,0.82,2.46,1.02,4.85,1.02v1.09H53.53V303.39z M78.81,284.61l-5.67-18.17l-5.94,18.17H78.81z"/>
	<path class="st0" d="M106.06,303.39h0.96c2.66,0,4.24-1.23,4.24-3.35v-37.64c0-0.89-0.14-1.23-0.48-1.57
		c-0.62-0.48-1.57-0.82-2.53-0.82h-2.05v-1.09h22.06c7.17,0,10.25,0.55,13.8,2.53c3.48,1.91,5.53,5.12,5.53,8.47
		c0,2.25-1.02,4.71-2.66,6.28c-1.98,1.91-3.89,2.87-8.95,4.58c5.94,1.57,8.27,2.8,9.84,5.19c1.23,1.84,1.57,3.48,1.57,7.99v4.85
		c0,1.64,0.41,2.39,1.3,2.39c1.78,0,3.01-3.62,3.01-8.61c0-0.2,0-1.71-0.07-2.73h0.89c0.07,1.57,0.07,2.66,0.07,3.35
		c0,4.78-0.96,7.79-3.01,9.5c-1.71,1.5-4.1,2.32-6.63,2.32c-3.01,0-5.94-1.16-8.06-3.21c-1.57-1.5-2.32-3.89-2.32-7.65
		c0-0.48,0.07-1.84,0.14-2.94c0.07-1.57,0.14-3.55,0.14-4.17c0-3.83-1.3-5.67-4.03-5.67h-3.96v18.85c0,1.64,1.09,3.14,2.25,3.14
		h2.32v1.09h-23.36V303.39z M124.85,280.24h3.07c4.85,0,6.15-1.91,6.15-9.15c0-4.78-0.27-7.04-1.16-8.61
		c-0.75-1.37-2.46-2.46-3.89-2.46h-4.17V280.24z"/>
	<path class="st0" d="M155.66,283.92c0.41,3.28,1.16,5.12,4.23,10.18c4.37,7.38,8.54,10.66,13.39,10.66c3.01,0,4.44-0.55,5.74-2.25
		c1.3-1.64,1.98-3.62,1.98-5.67c0-2.12-0.89-4.1-2.39-5.4c-1.98-1.71-1.98-1.71-13.66-5.6c-6.15-2.12-9.97-6.9-9.97-12.57
		c0-8.06,7.86-14.76,17.28-14.76c2.05,0,2.53,0.14,7.79,1.64c1.43,0.41,2.87,0.68,4.03,0.68c1.91,0,2.94-0.75,3.35-2.6h0.82v17.56
		h-0.82c-0.55-4.37-1.64-7.1-4.03-10.52c-2.73-3.89-6.35-6.01-10.32-6.01c-3.76,0-6.56,3.01-6.56,7.04c0,1.98,1.02,4.03,2.73,5.26
		c1.02,0.82,2.05,1.37,2.94,1.64l8.68,2.46c7.51,2.19,11.34,6.83,11.34,13.73c0,4.92-1.71,8.61-5.26,11.55
		c-3.62,3.07-8.2,4.71-12.84,4.71c-3.48,0-3.62,0-13.25-3.14c-0.61-0.2-1.43-0.34-2.12-0.34c-1.78,0-2.8,0.82-3.07,2.32h-0.75
		v-20.56H155.66z"/>
</g>
</svg>
