<svg xmlns="http://www.w3.org/2000/svg" viewBox="0 0 75.81 142.09"><title>50_best_gold</title><path d="M38.26 59.38c-.14.08-.16.22-.21.34a18.3 18.3 0 0 1-10.23 10.14 25.33 25.33 0 0 1-8.93 2 24 24 0 0 1-9.4-1.26 14.33 14.33 0 0 1-7-5A11.49 11.49 0 0 1 .81 54.23a7.2 7.2 0 0 1 5.91-4.88A7.3 7.3 0 0 1 15.24 56a7.21 7.21 0 0 1-2.12 6.16 7.25 7.25 0 0 1-8.73.75c-.46-.28-.88-.62-1.37-1a.92.92 0 0 0 0 .59 9 9 0 0 0 5.71 7 16.58 16.58 0 0 0 9.29 1 5.21 5.21 0 0 0 3.69-2.5 15.75 15.75 0 0 0 2-5.9A53.77 53.77 0 0 0 24 48.18a18 18 0 0 0-1.61-6A7.4 7.4 0 0 0 16.56 38c-4-.7-7.3.77-9.88 3.89A19.91 19.91 0 0 0 4.53 45a.6.6 0 0 1-.82.36c-.15-.17 0-.34 0-.5 1.11-4.22 2.2-8.44 3-12.73.62-3.39 1.15-6.77 1.71-10.13.32-1.92.65-3.84 1-5.82l2.95.51a58.14 58.14 0 0 0 8.55.73c2.22.05 4.45.05 6.68 0a34.47 34.47 0 0 0 6.9-1.12l.47-.1c.54-.1.84.17.73.7a12.83 12.83 0 0 1-6.09 8.88 19.59 19.59 0 0 1-7.29 2.32 48.85 48.85 0 0 1-11.9-.1c-.57-.07-1.13-.12-1.7-.17H8.5C7.33 32.37 6.67 37 5.34 41.45c.26.15.34 0 .42-.09 2.41-2.94 5.71-4.28 9.29-5a21.44 21.44 0 0 1 17.09 3.34 19 19 0 0 1 3 2.63 1.31 1.31 0 0 0 .14-.8 37.09 37.09 0 0 1 1.79-10.71 24.46 24.46 0 0 1 8.84-12.31 15.51 15.51 0 0 1 18-.91 21.68 21.68 0 0 1 9.36 11.26 38.15 38.15 0 0 1 2.5 11.54 38.45 38.45 0 0 1-3.06 18.1 25.34 25.34 0 0 1-7.59 10.16A14.79 14.79 0 0 1 54.61 72a17.47 17.47 0 0 1-13-7.11 27.89 27.89 0 0 1-3-4.91 1.63 1.63 0 0 0-.35-.6zm10.52-18.72c0 4.66.11 8.77.29 12.88.16 3.7.36 7.4.84 11.08a11.4 11.4 0 0 0 1.29 4.2 4.76 4.76 0 0 0 7.72.64 8.06 8.06 0 0 0 1.61-3.56 44.08 44.08 0 0 0 .81-6.76c.25-4 .33-8 .34-11.93 0-6.45 0-12.91-.47-19.35a52.78 52.78 0 0 0-.67-6 8.5 8.5 0 0 0-2-4.46 4.52 4.52 0 0 0-6.81-.05 8.32 8.32 0 0 0-2.08 4.29 55.35 55.35 0 0 0-.77 8.62c-.14 3.63-.2 7.29-.1 10.4zm-43.46 1v.08a.18.18 0 0 0 0-.09zM14.08 134.6c-.36.08-.36-.14-.41-.31-.91-3.25.66-6.9 3.2-8.13.6-.28 1.14-.67 1.72-1a5.16 5.16 0 0 0 2.88-4.34 9.94 9.94 0 0 0-.23-3.52 2.93 2.93 0 0 0-4.24-2.04 3.45 3.45 0 0 0-2.19 3c.13.07.2 0 .28-.11a2.54 2.54 0 0 1 3-.3 2.58 2.58 0 0 1 1.13 2.66 2.41 2.41 0 0 1-2 2.16 2.85 2.85 0 0 1-3.5-3.09 5.48 5.48 0 0 1 5.1-5.23 9 9 0 0 1 4.62.54 5.07 5.07 0 0 1 3.35 3.75 4.41 4.41 0 0 1-1.4 4.33 7.52 7.52 0 0 1-2.51 1.46c-1.19.46-2.42.79-3.62 1.2a12.54 12.54 0 0 0-2.07.86 6.47 6.47 0 0 0-3.34 5.17 1 1 0 0 0 .06.65.15.15 0 0 0 .16-.1 5.49 5.49 0 0 1 4.52-2.88 24.06 24.06 0 0 1 4.49.08 8.64 8.64 0 0 0 1.9-.07 3 3 0 0 0 1.26-.48 1.48 1.48 0 0 0 .67-1.52 16 16 0 0 1 .38-7 8.81 8.81 0 0 1 3.28-4.74 5.72 5.72 0 0 1 6.76-.21 7.56 7.56 0 0 1 3.07 3.72 14 14 0 0 1-.42 11.69 9.24 9.24 0 0 1-2.1 2.75 5.93 5.93 0 0 1-8.25-.42 10.14 10.14 0 0 1-2.05-3.27c-.07-.19-.14-.38-.24-.63a4.37 4.37 0 0 0-.31 1.35 6.41 6.41 0 0 1-1.18 2.73 4.44 4.44 0 0 1-6.07.62c-.64-.51-1.23-1.09-1.84-1.62a2.56 2.56 0 0 0-2.34-.64 1.83 1.83 0 0 0-1.53 2c-.07.33-.01.62.01.93zm22.18-9.6a68.07 68.07 0 0 0-.28-7.14 4.9 4.9 0 0 0-.53-2.09 1.72 1.72 0 0 0-3.15 0 4.67 4.67 0 0 0-.54 2.09 97.43 97.43 0 0 0 .16 13.88 5.93 5.93 0 0 0 .38 1.86 1.69 1.69 0 0 0 1.58 1.2 1.75 1.75 0 0 0 1.71-1.12A5.47 5.47 0 0 0 36 132a58.6 58.6 0 0 0 .26-7zM2.34 73.82a.63.63 0 0 1 .19 0c3.91 0 7.82-.09 11.73 0a7.83 7.83 0 0 1 4.1 1.33 3.74 3.74 0 0 1 1.23 5.19 4.48 4.48 0 0 1-2.16 1.7 11.55 11.55 0 0 0-1.63.63 2.8 2.8 0 0 0 .95.27 7.8 7.8 0 0 1 2.92 1.24 4.83 4.83 0 0 1-.73 8.24 8.05 8.05 0 0 1-3.5.75H2.54c-.16 0-.39.06-.41-.22s.21-.24.39-.24h.75c1.19 0 1.64-.47 1.64-1.66V75.61c0-1.09-.16-1.25-1.26-1.32h-1s-.4-.18-.31-.47zM10.73 83a3.74 3.74 0 0 0 0 .41v8a2.41 2.41 0 0 0 0 .54.89.89 0 0 0 .92.83h1.3a1.62 1.62 0 0 0 1.82-1.29 6 6 0 0 0 .21-.93 21 21 0 0 0-.05-4.76 5.67 5.67 0 0 0-.35-1.39 2.17 2.17 0 0 0-2-1.45c-.58-.04-1.17.04-1.85.04zm0-8.66v8.18h2a1.35 1.35 0 0 0 1.47-1.07 6.39 6.39 0 0 0 .28-1.74 11.93 11.93 0 0 0-.37-4.12 1.48 1.48 0 0 0-1.61-1.28 9.79 9.79 0 0 0-1.79 0z" fill="#9d8037"/><path d="M36.93 73.78v7.35h-.31a12.51 12.51 0 0 0-.53-2.79A7.65 7.65 0 0 0 34.33 76a6.59 6.59 0 0 0-2.5-1.47 8 8 0 0 0-2.93-.29v8.23a3.47 3.47 0 0 0 3.16-1.38 3.94 3.94 0 0 0 1.19-3.22c.32-.08.42 0 .42.2V87.62c0 .21.19.59-.37.58a5 5 0 0 0-2.13-4.32 2.87 2.87 0 0 0-2.17-.77c-.18.18-.11.39-.11.59v8c0 .82.2 1 1 1.11a7.41 7.41 0 0 0 2.57-.18A4.29 4.29 0 0 0 34.8 91a16.13 16.13 0 0 0 2.48-4.67 5.81 5.81 0 0 0 .24-1.61c0-.19-.09-.48.21-.49s.22.29.22.47v8.43H20.11c-.09-.3 0-.37.26-.37h1.23c1.11-.08 1.57-.53 1.58-1.63V75.37c0-.63-.22-.89-.84-1.07a6.86 6.86 0 0 0-1.69-.14c-.21 0-.58.15-.57-.26s.34-.21.54-.22h15.49a1.87 1.87 0 0 1 .82.1zM50.44 103.5a19.24 19.24 0 0 1 2 .71 3.18 3.18 0 0 1 1.9 2.63c.09.84 0 1.68.07 2.52v.89s0 .63.39.69.54-.21.67-.47a5.34 5.34 0 0 0 .47-2 10.22 10.22 0 0 1 0-1.57c.24-.06.3 0 .31.2a10.43 10.43 0 0 1-.16 2.79 3.31 3.31 0 0 1-3.85 2.55 4.62 4.62 0 0 1-1.8-.6 3 3 0 0 1-1.53-2.43c-.11-1 0-2 0-3.06a4.84 4.84 0 0 0-.11-1.56 1.28 1.28 0 0 0-1.33-1h-1.32c-.19.15-.13.32-.13.47v6.21a2 2 0 0 0 0 .34c.07.74.38 1 1.13 1 .22 0 .6-.13.48.39h-8.48c0-.19-.08-.34.2-.39 1.66-.3 1.68-.32 1.68-2V97.1c0-1-.22-1.25-1.28-1.29a1 1 0 0 1-.55-.06c-.07-.16-.08-.31.14-.34a2.57 2.57 0 0 1 .48 0h8.25a8.42 8.42 0 0 1 4.4 1 3.55 3.55 0 0 1 1.94 2.72 3.35 3.35 0 0 1-1.77 3.36 9.25 9.25 0 0 1-1.6.73c-.2.03-.46.03-.6.28zm-4.35-.25a12 12 0 0 0 1.82-.06 1.48 1.48 0 0 0 1.31-1.19 11.06 11.06 0 0 0 0-4.79 1.68 1.68 0 0 0-1.46-1.35 5.32 5.32 0 0 0-1.64 0zM53.24 73.46v7.6c-.48-.14-.43-.39-.46-.61a8.72 8.72 0 0 0-2.56-5A5 5 0 0 0 46.87 74a2.54 2.54 0 0 0-2.61 1.59 2.77 2.77 0 0 0 .37 3.18 3.76 3.76 0 0 0 1.93 1.21l3.48 1a6.79 6.79 0 0 1 3.84 2.43 6.31 6.31 0 0 1-.56 7.75 8.37 8.37 0 0 1-8.32 2.3c-1.1-.26-2.17-.66-3.25-1a3.37 3.37 0 0 0-1.13-.21 1.18 1.18 0 0 0-1.16.69c-.07.15-.11.3-.38.23v-8.68c.27-.06.31.09.34.25a15.12 15.12 0 0 0 4.21 7.19 4.59 4.59 0 0 0 3.3 1.41c1.86 0 2.82-1 3.16-2.73a3.17 3.17 0 0 0-2-3.64 37.38 37.38 0 0 0-3.59-1.29 15.85 15.85 0 0 1-2.29-.87A5.43 5.43 0 0 1 41 75.59a7.6 7.6 0 0 1 7.17-1.74c.71.17 1.4.38 2.1.58a5 5 0 0 0 1.08.13 1.26 1.26 0 0 0 1.4-.85c.08-.13.14-.24.49-.25zM4.13 111.81a7.33 7.33 0 0 1 1.13 0c.85 0 1.25-.43 1.25-1.27V96.8c0-.67-.13-.84-.81-.93-.46-.07-.94-.06-1.38-.09-.09-.18-.09-.32.07-.37a1.91 1.91 0 0 1 .48 0h8.66A8.11 8.11 0 0 1 18 96.49a3.28 3.28 0 0 1 1.62 3.51 3.34 3.34 0 0 1-2.13 2.47c-.5.22-1 .38-1.6.6a7.18 7.18 0 0 0 1.31.36 4.85 4.85 0 0 1 3.36 2.57 4.09 4.09 0 0 1-1.94 5.53 6.72 6.72 0 0 1-2.77.64c-3.77.12-7.55 0-11.32 0-.21.02-.53.08-.4-.36zm7.42-8.45V110.93c.08.62.31.84.93.86h1a1.41 1.41 0 0 0 1.59-1.18 5 5 0 0 0 .17-.86 21.54 21.54 0 0 0 0-3.68 5.26 5.26 0 0 0-.33-1.45 1.83 1.83 0 0 0-1.64-1.25c-.57-.05-1.12-.01-1.72-.01zm-.05-.46h1.77c.72 0 1.08-.2 1.26-.89a9.5 9.5 0 0 0-.19-5.36 1.09 1.09 0 0 0-.95-.77 7 7 0 0 0-1.89 0zM72.93 82.12a2.65 2.65 0 0 1-.22-1 9 9 0 0 0-4.47-6.51c-.5-.31-.6-.29-1.31-.23-.14.19-.08.4-.08.6v16.23c0 1.12.42 1.56 1.55 1.62h.82c.32 0 .37.17.26.48H58c-.12-.31-.07-.48.29-.49a8.93 8.93 0 0 0 1.16 0 1.43 1.43 0 0 0 1.37-1.51V74.53v-.1a1.35 1.35 0 0 0-1.13.19 8.5 8.5 0 0 0-3.69 3.6 6.37 6.37 0 0 0-1 3.35c0 .17.06.38-.16.48a52.69 52.69 0 0 1-.1-8.18H73a64 64 0 0 1-.07 8.25zM58.59 122.75a3.39 3.39 0 0 0 .93.47 5.89 5.89 0 0 1 2.9 8.13 7.11 7.11 0 0 1-5.14 4 9.58 9.58 0 0 1-6-.53 6.39 6.39 0 0 1-1.94-1.23 4.25 4.25 0 0 1 .33-6.78 11 11 0 0 1 2.17-1.17c-.06-.31-.33-.43-.54-.57-3.23-2.21-2.25-7.19.26-8.88s4.91-2.07 7.56-.63a4.22 4.22 0 0 1 2.24 2.93 3 3 0 0 1-.8 2.76 11.36 11.36 0 0 1-1.97 1.5zm-6 3.17a2.61 2.61 0 0 0-.85 1.38 10.56 10.56 0 0 0 .14 5.44c.6 1.85 1.69 2.54 3.74 2.44a3 3 0 0 0 3-2.11 4.22 4.22 0 0 0-2-5.18c-1.27-.67-2.62-1.31-3.99-1.97zm5.22-3.32a2.54 2.54 0 0 0 .8-1.57 11.47 11.47 0 0 0 0-3.46 3.26 3.26 0 0 0-.44-1.27 2.43 2.43 0 0 0-4-.27 3.71 3.71 0 0 0 .58 5 12.61 12.61 0 0 0 3.1 1.57zM57.16 112.15v-7.51c.28 0 .27.14.3.29a13.63 13.63 0 0 0 3.42 6A4.16 4.16 0 0 0 64 112.3a2.54 2.54 0 0 0 2.73-2.46 2.74 2.74 0 0 0-1.89-3.11c-1.17-.5-2.39-.86-3.6-1.26a7.19 7.19 0 0 1-2.24-1.09A4.6 4.6 0 0 1 58 98a6.67 6.67 0 0 1 7-2.56l2 .54a3.79 3.79 0 0 0 1 .1 1 1 0 0 0 1-.69c0-.13.09-.26.27-.25a43.69 43.69 0 0 1 .08 6.48c-.39 0-.32-.31-.35-.52a7.79 7.79 0 0 0-2-4 4.45 4.45 0 0 0-2.76-1.49 2.42 2.42 0 0 0-2.6 1.34 2.5 2.5 0 0 0 .57 3 3.62 3.62 0 0 0 1.47.82c1 .25 1.93.54 2.89.81a10.31 10.31 0 0 1 1.4.53c3.77 1.69 3.46 6.55 1.33 8.5a7.41 7.41 0 0 1-7.2 1.81c-.85-.22-1.69-.52-2.53-.79-.24-.07-.48-.15-.72-.2a1.23 1.23 0 0 0-1.56.93z" fill="#9d8037"/><path d="M27.5 95.41h3.79l1.28 3.78q1.92 5.64 3.82 11.28c.06.18.13.35.19.52a1.09 1.09 0 0 0 1.21.78 3.11 3.11 0 0 1 .61 0c.23 0 .22.17.16.34s-.35.07-.53.07h-8.59c-.21 0-.6.16-.59-.22s.4-.14.61-.2h.21c1.19 0 1.45-.32 1.11-1.44-.47-1.57-1-3.12-1.48-4.68a.47.47 0 0 0-.53-.39h-3.55c-.25 0-.44 0-.54.31a10.76 10.76 0 0 0-.85 3.49 2.31 2.31 0 0 0 2.43 2.71c.15 0 .35 0 .36.2s-.17.22-.33.22h-6.21c-.13 0-.29 0-.31-.17s.14-.24.3-.27a3.28 3.28 0 0 0 2.4-1.84 21.1 21.1 0 0 0 1.78-4.41q1.53-4.8 3.07-9.6c.05-.14.11-.28.18-.48zm1.56 9.44l-2-6.42h-.14l-2.08 6.4zM49.6 134.94h-9.47c-.09-.18-.06-.31.16-.33s.32 0 .48 0a1.36 1.36 0 0 0 1.34-1.14 4.28 4.28 0 0 0 .1-1v-12.61-.34c-.05-1-.27-1.26-1.28-1.4a1.49 1.49 0 0 1-.82-.21 17.63 17.63 0 0 0 7.06-3.61 1.42 1.42 0 0 1 .13.84V133c0 1.11.41 1.53 1.51 1.57h.61c.16.05.22.15.18.37zM17.37 6.39h3.38c-.12.24-.43.13-.46.36a1.36 1.36 0 0 0 .07.6c.27 1.26.64 2.49.82 3.76h.14a15.56 15.56 0 0 0 .83-3.29c.09-.78-.11-1-.81-1.41a10.25 10.25 0 0 1 2.28 0c-.75.18-.93.8-1.15 1.36a28.43 28.43 0 0 0-.81 3c-.28 1-.53 2.06-.8 3.1h-1.29l-1-4.06h-.14l-1.07 4a6.07 6.07 0 0 1-1.22 0c-.25-1-.51-2-.76-3-.3-1.21-.6-2.42-.89-3.63-.09-.36-.15-.73-.74-.75a9.65 9.65 0 0 1 3.47-.09c-.6.23-.53.61-.41 1.05.27 1 .51 2 .78 3 0 .18 0 .4.22.55.77-1.46.59-3.73-.44-4.55zM32.9 10.15v2.63c0 .72 0 .74.71.92a12.65 12.65 0 0 1-3.75.07c0-.17.13-.15.23-.16.42 0 .56-.28.56-.69V7.19c0-.66-.44-.59-.82-.68a.23.23 0 0 1 .28-.18c1.45 0 2.91-.07 4.36.06a2.9 2.9 0 0 1 1.35.43 1.5 1.5 0 0 1 0 2.67 4.23 4.23 0 0 1-.9.39c.08.2.26.18.41.23a1.58 1.58 0 0 1 1.26 1.71 3.49 3.49 0 0 0 .14 1.48c.7-.47.42-1.21.58-1.81a2.06 2.06 0 0 1-.31 2.06 1.91 1.91 0 0 1-2.05.16 1.24 1.24 0 0 1-.75-1.13v-1.43c-.01-1.01-.2-1.15-1.3-1zm0-.38c1.15.15 1.38 0 1.44-1.11a6.46 6.46 0 0 0 0-.88c-.06-1.07-.33-1.29-1.44-1.16zM44.34 6.45c.12-.14.29-.08.44-.08h3.61a7.36 7.36 0 0 1 1.75.22 2.36 2.36 0 0 1 1.16.67c1 1.15 1.59 4.11-.3 5.77a2.78 2.78 0 0 1-1.83.81h-4.79c-.06-.09-.05-.13 0-.13 1.07-.13 1.07-.13 1.07-1.19V7.6c0-1 0-1-1-1.06-.02-.01-.09.01-.11-.09zm3.38 7.14c1.29.21 1.64 0 1.88-1.27v-.27a20.66 20.66 0 0 0 .1-3.93A2.7 2.7 0 0 0 49.48 7 1.24 1.24 0 0 0 48 6.54c-.51.1-.38.5-.38.81v5.51a1.64 1.64 0 0 0 .1.73z" fill="#9d8037"/><path d="M26.3 13.92a3.75 3.75 0 0 1-3.74-3.8 4.12 4.12 0 0 1 3.81-3.93 4.11 4.11 0 0 1 3.75 4 4 4 0 0 1-3.82 3.73zM24.93 10v.42a8.06 8.06 0 0 0 .3 2.49 1.12 1.12 0 0 0 1.05.83 1 1 0 0 0 1-.82 5.69 5.69 0 0 0 .27-1.47 14.09 14.09 0 0 0-.23-4.2A1 1 0 0 0 26 6.42a1.23 1.23 0 0 0-.72.93 8.61 8.61 0 0 0-.35 2.65zM55 13.74v-3.15A8.7 8.7 0 0 0 56.37 13a2.07 2.07 0 0 0 1.38.89 1.15 1.15 0 0 0 1.36-.74 1.24 1.24 0 0 0-.48-1.56 6.21 6.21 0 0 0-1.19-.49c-.4-.15-.83-.26-1.21-.44A2.1 2.1 0 0 1 55.72 7a2.9 2.9 0 0 1 2.66-.69c.31.07.62.17.93.23.56.13.57.12 1-.29a10.36 10.36 0 0 1 0 2.8c-.17-.18-.15-.42-.22-.62a2.8 2.8 0 0 0-1.73-2 1.09 1.09 0 0 0-1.49.68 1.11 1.11 0 0 0 .71 1.42c.51.21 1 .33 1.56.49a2.26 2.26 0 0 1 1.89 2.05 2.48 2.48 0 0 1-1.55 2.56 3.43 3.43 0 0 1-2.7.14c-.22-.07-.43-.16-.64-.22-.6-.13-.6-.13-1.14.19zM38.25 136.33c.11 0 .14.16.18.27a4 4 0 0 0 3.72 2.5h20.72a.92.92 0 0 1-.68.13H42.75a4.39 4.39 0 0 0-4.49 2.87 3.8 3.8 0 0 0-2.09-2.43 4.18 4.18 0 0 0-1.91-.43H13.61a.92.92 0 0 1 .65-.13h20.21a3.92 3.92 0 0 0 3.78-2.78zM37.25 6.3h4c.14 0 .31 0 .42.06s0 .12 0 .13c-1 .16-1 .16-1 1.15v5.17c0 .84.43 1.11 1.18.7a3.65 3.65 0 0 0 1.7-2.2c.08-.24.12-.48.19-.75a10.49 10.49 0 0 1 .07 3.27h-6.45c0-.25.21-.17.33-.19a.7.7 0 0 0 .64-.75V7.17a.57.57 0 0 0-.56-.63.63.63 0 0 1-.52-.24zM36.86 2.17h1.58c-.13-.71.31-1.48-.35-2.14h2.4a.73.73 0 0 0-.49.83v3.4c0 .34 0 .66.43.75h-2.29c.6-.81.16-1.74.31-2.66h-1.51c-.08.74 0 1.49 0 2.23 0 .27.24.28.47.43h-2.55a.71.71 0 0 0 .53-.76V.71c0-.31 0-.61-.41-.68h2.3c-.7.6-.28 1.38-.42 2.14zM44.15 1.06v2.7c-.25-.69-.47-1.24-1.2-1.31V4.8c1.11.44 1.84-.5 2.3-1.92V5h-4.51c.69-.22.69-.22.69-1.07v-3c0-.73 0-.73-.7-.93H45v1.89c-.31-1.1-.86-1.77-2-1.75v2c.56.02.74-.14 1.15-1.08zM33.68 5h-2.94c.73-.23.74-.24.74-.91V.16c-1 .27-1.27 1.06-1.56 1.73V0h4.71a11.9 11.9 0 0 1 0 2 2.46 2.46 0 0 0-1.4-1.83c-.24.14-.16.35-.16.51v3.41c-.01.69 0 .69.61.91zM53 9.09c.62-.21 1.2-.43 1.34-1.17-.2-.18-.36 0-.52 0a1 1 0 0 1-1.26-.74.94.94 0 0 1 .65-1.12 1.11 1.11 0 0 1 1.42.59A1.78 1.78 0 0 1 53 9.09z" fill="#9d8037"/></svg>